{"accessors":[{"bufferView":0,"componentType":5126,"count":24,"max":[500.0,1.0,500.0],"min":[-500.0,-1.0,-500.0],"normalized":false,"type":"VEC3"},{"bufferView":1,"componentType":5126,"count":24,"max":[1.0,0.0,1.0,1.0],"min":[-1.0,-0.0000152592547237873,-1.0,1.0],"normalized":false,"type":"VEC4"},{"bufferView":2,"componentType":5126,"count":24,"max":[1.0,1.0,1.0],"min":[-1.0,-1.0,-1.0],"normalized":false,"type":"VEC3"},{"bufferView":3,"componentType":5126,"count":24,"max":[1.0,1.0],"min":[0.0,0.0],"normalized":false,"type":"VEC2"},{"bufferView":4,"componentType":5123,"count":36,"max":[23.0],"min":[0.0],"normalized":false,"type":"SCALAR"}],"asset":{"generator":"Godot Engine v4.5.1.stable.official@f62fdbde15035c5576dad93e586201f4d41ef0cb","version":"2.0"},"bufferViews":[{"buffer":0,"byteLength":288,"byteStride":12,"target":34962},{"buffer":0,"byteLength":384,"byteOffset":288,"byteStride":16,"target":34962},{"buffer":0,"byteLength":288,"byteOffset":672,"byteStride":12,"target":34962},{"buffer":0,"byteLength":192,"byteOffset":960,"byteStride":8,"target":34962},{"buffer":0,"byteLength":72,"byteOffset":1152,"target":34963}],"buffers":[{"byteLength":1224,"uri":"world0.bin"}],"extensions":{"OMI_physics_shape":{"shapes":[{"box":{"size":[1000.0,2.0,1000.0]},"type":"box"}]}},"extensionsUsed":["GODOT_single_root","OMI_physics_body","OMI_physics_shape"],"materials":[{"extensions":{},"pbrMetallicRoughness":{"baseColorFactor":[0.147027373313904,0.623960912227631,0.0742136761546135,1.0],"metallicFactor":0.0,"roughnessFactor":1.0}}],"meshes":[{"primitives":[{"attributes":{"NORMAL":2,"POSITION":0,"TANGENT":1,"TEXCOORD_0":3},"indices":4,"material":0,"mode":4}]}],"nodes":[{"children":[1,2],"extensions":{"OMI_physics_body":{"motion":{"type":"static"}}},"name":"Ground"},{"extensions":{"OMI_physics_body":{"collider":{"shape":0}}},"name":"CollisionShape3D"},{"mesh":0,"name":"Mesh"}],"scene":0,"scenes":[{"nodes":[0]}]}
