{"accessors":[{"bufferView":0,"componentType":5126,"count":24,"max":[2.5,1.0,2.5],"min":[-2.5,-1.0,-2.5],"normalized":false,"type":"VEC3"},{"bufferView":1,"componentType":5126,"count":24,"max":[0.639215707778931,0.576470613479614,0.792156875133514,1.0],"min":[0.639215707778931,0.576470613479614,0.792156875133514,1.0],"normalized":false,"type":"VEC4"},{"bufferView":2,"componentType":5126,"count":24,"max":[2.5,1.0,2.5],"min":[-2.5,-1.0,-2.5],"normalized":false,"type":"VEC3"},{"bufferView":3,"componentType":5126,"count":24,"max":[1.0,0.0,1.0,1.0],"min":[-1.0,-0.0000152592547237873,-1.0,1.0],"normalized":false,"type":"VEC4"},{"bufferView":4,"componentType":5126,"count":24,"max":[1.0,1.0,1.0],"min":[-1.0,-1.0,-1.0],"normalized":false,"type":"VEC3"},{"bufferView":5,"componentType":5126,"count":24,"max":[1.0,1.0],"min":[0.0,0.0],"normalized":false,"type":"VEC2"},{"bufferView":6,"componentType":5126,"count":24,"max":[0.639215707778931,0.576470613479614,0.792156875133514,0.0588235296308994],"min":[0.639215707778931,0.576470613479614,0.792156875133514,0.0588235296308994],"normalized":false,"type":"VEC4"},{"bufferView":7,"componentType":5123,"count":36,"max":[23.0],"min":[0.0],"normalized":false,"type":"SCALAR"}],"asset":{"generator":"Godot Engine v4.5.1.stable.official@f62fdbde15035c5576dad93e586201f4d41ef0cb","version":"2.0"},"bufferViews":[{"buffer":0,"byteLength":288,"byteStride":12,"target":34962},{"buffer":0,"byteLength":384,"byteOffset":288,"byteStride":16,"target":34962},{"buffer":0,"byteLength":288,"byteOffset":672,"byteStride":12,"target":34962},{"buffer":0,"byteLength":384,"byteOffset":960,"byteStride":16,"target":34962},{"buffer":0,"byteLength":288,"byteOffset":1344,"byteStride":12,"target":34962},{"buffer":0,"byteLength":192,"byteOffset":1632,"byteStride":8,"target":34962},{"buffer":0,"byteLength":384,"byteOffset":1824,"byteStride":16,"target":34962},{"buffer":0,"byteLength":72,"byteOffset":2208,"target":34963}],"buffers":[{"byteLength":2280,"uri":"world0.bin"}],"extensionsUsed":["GODOT_single_root","KHR_materials_unlit"],"materials":[{"alphaMode":"BLEND","extensions":{"KHR_materials_unlit":{}},"pbrMetallicRoughness":{"baseColorFactor":[1.0,1.0,1.0,1.0],"metallicFactor":0.0,"roughnessFactor":1.0}}],"meshes":[{"primitives":[{"attributes":{"COLOR_0":1,"POSITION":0},"material":0,"mode":1},{"attributes":{"COLOR_0":6,"NORMAL":4,"POSITION":2,"TANGENT":3,"TEXCOORD_0":5},"indices":7,"material":0,"mode":4}]}],"nodes":[{"children":[1]},{"mesh":0,"name":"_MeshInstance3D_34731","translation":[0.0,-1.0,0.0]}],"scene":0,"scenes":[{"nodes":[0]}]}